<?xml version="1.0" encoding="UTF-8"?>
<svg width="48px" height="48px" viewBox="0 0 48 48" version="1.1" xmlns="http://www.w3.org/2000/svg" xmlns:xlink="http://www.w3.org/1999/xlink">
    <title>Browser/Buy_Icon</title>
    <g id="Browser/Buy_Icon" stroke="none" stroke-width="1" fill="none" fill-rule="evenodd">
        <rect id="Rectangle" fill="#FFFFFF" x="0" y="0" width="48" height="48"></rect>
        <g id="purchases">
            <rect id="bounds-2" x="0" y="7.95807864e-13" width="48" height="48"></rect>
            <path d="M16,36 C13.792,36 12.02,37.79 12.02,40 C12.02,42.208 13.792,44 16,44 C18.21,44 20,42.208 20,40 C20,37.79 18.21,36 16,36 M36,36 C33.792,36 32.02,37.79 32.02,40 C32.02,42.208 33.792,44 36,44 C38.21,44 40,42.208 40,40 C40,37.79 38.21,36 36,36 M8,4 L3.998,4 L3.998,7.998 L8,7.998 L15.196,23.174 L12.49,28.076 C12.178,28.65 12,29.306 12,30 C12,32.208 13.792,34 16,34 L40,34 L40,30 L16.846,30 C16.57,30 16.348,29.778 16.348,29.5 L16.408,29.258 L18.204,26 L33.102,26 C34.606,26 35.918,25.17 36.602,23.942 L43.75,10.964 C43.91,10.68 44.002,10.35 44.002,10 C44.002,8.894 43.106,7.998 42,7.998 L12.426,7.998 L11.614,6.29 C10.976,4.936 9.596,4 8,4" id="Fill-2" fill="#87CF52"></path>
        </g>
    </g>
</svg>