<?xml version="1.0" encoding="UTF-8"?>
<svg width="48px" height="48px" viewBox="0 0 48 48" version="1.1" xmlns="http://www.w3.org/2000/svg" xmlns:xlink="http://www.w3.org/1999/xlink">
    <title>Browser/Defi_Icon</title>
    <g id="Browser/Defi_Icon" stroke="none" stroke-width="1" fill="none" fill-rule="evenodd">
        <g>
            <rect id="Rectangle" fill="#FFFFFF" x="0" y="0" width="48" height="48"></rect>
            <path d="M8.6796875,24.0937588 C9.74333984,24.0937588 10.7060059,23.6670498 11.4173047,22.9817666 L15.3199121,24.9328506 C15.3003125,25.0917568 15.2714844,25.2480264 15.2714844,25.4121182 C15.2714844,27.5929482 17.0458203,29.3671963 19.2265625,29.3671963 C21.4073047,29.3671963 23.1816406,27.5929482 23.1816406,25.4121182 C23.1816406,24.8033877 23.0319629,24.2335049 22.7850781,23.7178506 L28.0791699,18.4237588 C28.5948242,18.6706436 29.164707,18.8203213 29.7734375,18.8203213 C31.9541797,18.8203213 33.7285156,17.0459854 33.7285156,14.8652432 C33.7285156,14.4546182 33.647832,14.0663174 33.5311133,13.6938369 L38.130957,10.244833 C38.7584961,10.6639834 39.510752,10.910165 40.3203125,10.910165 C42.5010547,10.910165 44.2753906,9.13591699 44.2753906,6.95508691 C44.2753906,4.77434473 42.5010547,3.00000879 40.3203125,3.00000879 C38.1394824,3.00000879 36.3652344,4.77434473 36.3652344,6.95508691 C36.3652344,7.36571191 36.445918,7.7540127 36.5626367,8.12649316 L31.962793,11.5754971 C31.3352539,11.1563467 30.582998,10.910165 29.7734375,10.910165 C27.5926074,10.910165 25.8183594,12.684501 25.8183594,14.8652432 C25.8183594,15.4739736 25.9680371,16.0438564 26.2149219,16.5595107 L20.9208301,21.8536025 C20.4051758,21.6067178 19.835293,21.45704 19.2265625,21.45704 C18.1629102,21.45704 17.2002441,21.883749 16.4889453,22.5690322 L12.5863379,20.6179482 C12.6059375,20.459042 12.6347656,20.3027725 12.6347656,20.1386807 C12.6347656,17.9578506 10.8604297,16.1836025 8.6796875,16.1836025 C6.49894531,16.1836025 4.72460938,17.9578506 4.72460938,20.1386807 C4.72460938,22.3195107 6.49894531,24.0937588 8.6796875,24.0937588" id="Fill-1" fill="#FD9426"></path>
            <path d="M45.6816406,45.36329 L44.2753906,45.36329 L44.2753906,17.5019619 C44.2753906,16.7734365 43.6855566,16.1836025 42.9570312,16.1836025 L37.6835938,16.1836025 C36.9550684,16.1836025 36.3652344,16.7734365 36.3652344,17.5019619 L36.3652344,45.36329 L33.7285156,45.36329 L33.7285156,25.4121182 C33.7285156,24.6836025 33.1386816,24.0937588 32.4101562,24.0937588 L27.1367188,24.0937588 C26.4081934,24.0937588 25.8183594,24.6836025 25.8183594,25.4121182 L25.8183594,45.36329 L23.1816406,45.36329 L23.1816406,35.9589932 C23.1816406,35.2304678 22.5918066,34.6406338 21.8632812,34.6406338 L16.5898438,34.6406338 C15.8613184,34.6406338 15.2714844,35.2304678 15.2714844,35.9589932 L15.2714844,45.36329 L12.6347656,45.36329 L12.6347656,30.6855557 C12.6347656,29.9570303 12.0449316,29.3671963 11.3164062,29.3671963 L6.04296875,29.3671963 C5.31444336,29.3671963 4.72460938,29.9570303 4.72460938,30.6855557 L4.72460938,45.36329 L3.31835938,45.36329 C2.58983398,45.36329 2,45.953124 2,46.6816494 C2,47.4101748 2.58983398,48.0000088 3.31835938,48.0000088 L45.6816406,48.0000088 C46.410166,48.0000088 47,47.4101748 47,46.6816494 C47,45.953124 46.410166,45.36329 45.6816406,45.36329" id="Fill-3" fill="#FD9426"></path>
        </g>
    </g>
</svg>