<?xml version="1.0" encoding="UTF-8"?>
<svg width="48px" height="48px" viewBox="0 0 48 48" version="1.1" xmlns="http://www.w3.org/2000/svg" xmlns:xlink="http://www.w3.org/1999/xlink">
    <title>Browser/Exchange_Icon</title>
    <g id="Browser/Exchange_Icon" stroke="none" stroke-width="1" fill="none" fill-rule="evenodd">
        <g id="swap">
            <rect id="Rectangle" fill="#FFFFFF" x="0" y="0" width="48" height="48"></rect>
            <path d="M38.3699859,6.03743326 L28.7775176,15.6300141 L35.971897,15.6300141 L35.971897,32.4168618 C35.971897,35.0667541 33.8256112,37.2131522 31.1756066,37.2131522 C28.5257143,37.2131522 26.3793162,35.0668665 26.3793162,32.4168618 L26.3793162,15.6300141 C26.3793162,10.3421452 22.0747166,6.03743326 16.7868478,6.03743326 C11.4989789,6.03743326 7.19437939,10.3421452 7.19437939,15.6300141 L7.19437939,32.4168618 L0,32.4168618 L9.59246838,42.0093302 L19.1850492,32.4168618 L11.9906698,32.4168618 L11.9906698,15.6300141 C11.9906698,12.9801218 14.1369555,10.8337237 16.7869602,10.8337237 C19.4369649,10.8337237 21.5831382,12.9800094 21.5831382,15.6300141 L21.5831382,32.4168618 C21.5831382,37.7047307 25.8877377,42.0093302 31.1756066,42.0093302 C36.4634754,42.0093302 40.7680749,37.7047307 40.7680749,32.4168618 L40.7680749,15.6300141 L47.9624543,15.6300141 L38.3699859,6.03743326 Z" id="Path" fill="#00BFFF"></path>
        </g>
    </g>
</svg>