<?xml version="1.0" encoding="UTF-8"?>
<svg width="48px" height="48px" viewBox="0 0 48 48" version="1.1" xmlns="http://www.w3.org/2000/svg" xmlns:xlink="http://www.w3.org/1999/xlink">
    <title>Browser/Games_Icon</title>
    <defs>
        <polygon id="path-1" points="2 11 46 11 46 40 2 40"></polygon>
    </defs>
    <g id="Browser/Games_Icon" stroke="none" stroke-width="1" fill="none" fill-rule="evenodd">
        <g id="Group-3">
            <rect id="Rectangle" fill="#FFFFFF" x="0" y="0" width="48" height="48"></rect>
            <mask id="mask-2" fill="white">
                <use xlink:href="#path-1"></use>
            </mask>
            <g id="Clip-2"></g>
            <path d="M38.4862062,24.1311856 C37.1668474,24.1311856 36.1018427,23.0698352 36.1018427,21.7570263 C36.1018427,20.443401 37.1668474,19.382867 38.4862062,19.382867 C39.8014625,19.382867 40.8730312,20.443401 40.8730312,21.7570263 C40.8730312,23.0698352 39.8014625,24.1311856 38.4862062,24.1311856 M32.5441688,20.624647 C31.2239895,20.624647 30.1606257,19.5632966 30.1606257,18.2513041 C30.1606257,16.9368624 31.2239895,15.8771448 32.5441688,15.8771448 C33.8586046,15.8771448 34.9309938,16.9368624 34.9309938,18.2513041 C34.9309938,19.564113 33.8586046,20.624647 32.5441688,20.624647 M32.5441688,27.1568508 C31.2239895,27.1568508 30.1606257,26.094684 30.1606257,24.7826915 C30.1606257,23.4682498 31.2239895,22.4085322 32.5441688,22.4085322 C33.8586046,22.4085322 34.9309938,23.4682498 34.9309938,24.7826915 C34.9309938,26.0955004 33.8586046,27.1568508 32.5441688,27.1568508 M18.7171576,23.8617659 L15.7026526,23.8617659 L15.7026526,26.7527212 C15.7026526,26.7527212 15.0643061,27.2376768 14.076428,27.2254304 C13.0901909,27.2107348 12.6438407,26.6972045 12.6438407,26.6972045 L12.6438407,23.8625823 L9.79671699,23.8625823 C9.79671699,23.8625823 9.4414419,23.5000903 9.34626428,22.5456913 C9.25272765,21.5912924 9.73928222,20.8197722 9.73928222,20.8197722 L12.7546078,20.8197722 L12.7546078,17.8202326 C12.7546078,17.8202326 13.3749033,17.4895811 14.2667833,17.5148902 C15.1594837,17.5426486 15.8134196,17.8765658 15.8134196,17.8765658 L15.8011122,20.8189558 L18.6482359,20.8189558 C18.6482359,20.8189558 19.1454569,21.4541332 19.1864818,22.2215712 C19.2275066,22.9898257 18.7171576,23.8617659 18.7171576,23.8617659 M42.0660335,16.1286032 C36.2544551,6.62788383 27.4997548,13.2376479 27.4997548,13.2376479 C26.931971,13.6646373 25.8858377,14.0156994 25.1736465,14.0173322 L22.8286668,14.0189651 C22.1172961,14.0197815 21.0703423,13.6687194 20.503379,13.24173 C20.503379,13.24173 11.7478583,6.6303331 5.93545931,16.1310525 C0.124701353,25.6285062 2.46639907,35.9717746 2.46639907,35.9717746 C2.87664744,38.50432 4.22882608,40.1943165 6.78057096,39.9820464 C9.32493136,39.7705928 14.847695,33.1624616 14.847695,33.1624616 C15.3038912,32.6179071 16.2597699,32.1729564 16.9694995,32.1729564 L31.0278908,32.1696907 C31.738441,32.1696907 32.6934992,32.6154579 33.1488749,33.1600123 C33.1488749,33.1600123 38.6732795,39.7681435 41.2209219,39.9795972 C43.7693848,40.1918672 45.1248454,38.5010543 45.5326323,35.9693253 C45.5318118,35.9693253 47.877612,25.6276898 42.0660335,16.1286032" id="Fill-1" fill="#595AD5" mask="url(#mask-2)"></path>
        </g>
    </g>
</svg>