<?xml version="1.0" encoding="UTF-8"?>
<svg width="48px" height="48px" viewBox="0 0 48 48" version="1.1" xmlns="http://www.w3.org/2000/svg" xmlns:xlink="http://www.w3.org/1999/xlink">
    <title>Android/News_Icon</title>
    <g id="Android/News_Icon" stroke="none" stroke-width="1" fill="none" fill-rule="evenodd">
        <g id="Shape">
            <polygon fill="#FFFFFF" points="0 0 48 0 48 48 0 48"></polygon>
            <path d="M23.98,4 C12.94,4 4,12.96 4,24 C4,35.04 12.94,44 23.98,44 C35.04,44 44,35.04 44,24 C44,12.96 35.04,4 23.98,4 Z M37.84,16 L31.94,16 C31.3,13.5 30.38,11.1 29.18,8.88 C32.86,10.14 35.92,12.7 37.84,16 Z M24,8.08 C25.66,10.48 26.96,13.14 27.82,16 L20.18,16 C21.04,13.14 22.34,10.48 24,8.08 Z M8.52,28 C8.2,26.72 8,25.38 8,24 C8,22.62 8.2,21.28 8.52,20 L15.28,20 C15.12,21.32 15,22.64 15,24 C15,25.36 15.12,26.68 15.28,28 L8.52,28 Z M10.16,32 L16.06,32 C16.7,34.5 17.62,36.9 18.82,39.12 C15.14,37.86 12.08,35.32 10.16,32 L10.16,32 Z M16.06,16 L10.16,16 C12.08,12.68 15.14,10.14 18.82,8.88 C17.62,11.1 16.7,13.5 16.06,16 L16.06,16 Z M24,39.92 C22.34,37.52 21.04,34.86 20.18,32 L27.82,32 C26.96,34.86 25.66,37.52 24,39.92 Z M28.68,28 L19.32,28 C19.14,26.68 19,25.36 19,24 C19,22.64 19.14,21.3 19.32,20 L28.68,20 C28.86,21.3 29,22.64 29,24 C29,25.36 28.86,26.68 28.68,28 Z M29.18,39.12 C30.38,36.9 31.3,34.5 31.94,32 L37.84,32 C35.92,35.3 32.86,37.86 29.18,39.12 L29.18,39.12 Z M32.72,28 C32.88,26.68 33,25.36 33,24 C33,22.64 32.88,21.32 32.72,20 L39.48,20 C39.8,21.28 40,22.62 40,24 C40,25.38 39.8,26.72 39.48,28 L32.72,28 Z" fill="#FC3159"></path>
        </g>
    </g>
</svg>