<?xml version="1.0" encoding="utf-8"?>
<!-- Generator: Adobe Illustrator 25.2.1, SVG Export Plug-In . SVG Version: 6.00 Build 0)  -->
<svg version="1.1" id="Layer_1" xmlns="http://www.w3.org/2000/svg" xmlns:xlink="http://www.w3.org/1999/xlink" x="0px" y="0px"
	 viewBox="0 0 48 48" style="enable-background:new 0 0 48 48;" xml:space="preserve">
<style type="text/css">
	.st0{clip-path:url(#SVGID_2_);fill:#8247E5;}
</style>
<g>
	<defs>
		<path id="SVGID_1_" d="M36.2,16c-0.9-0.5-2-0.5-3,0l-6.9,4l-4.7,2.6l-6.9,4c-0.9,0.5-2,0.5-3,0l-5.5-3.1C5.3,23,4.7,22,4.7,21
			v-6.2c0-1,0.5-2,1.5-2.5l5.4-3c0.9-0.5,2-0.5,3,0l5.4,3c0.9,0.5,1.5,1.5,1.5,2.5v4l4.7-2.7v-4c0-1-0.5-2-1.5-2.5l-10-5.7
			c-0.9-0.5-2-0.5-3,0L1.5,9.5C0.5,10.1,0,11,0,12.1v11.6c0,1,0.5,2,1.5,2.5l10.2,5.7c0.9,0.5,2,0.5,3,0l6.9-3.9l4.7-2.7l6.9-3.9
			c0.9-0.5,2-0.5,3,0l5.4,3c0.9,0.5,1.5,1.5,1.5,2.5v6.2c0,1-0.5,2-1.5,2.5l-5.4,3.1c-0.9,0.5-2,0.5-3,0l-5.4-3
			c-0.9-0.5-1.5-1.5-1.5-2.5v-4l-4.7,2.7v4c0,1,0.5,2,1.5,2.5l10.2,5.7c0.9,0.5,2,0.5,3,0l10.2-5.7c0.9-0.5,1.5-1.5,1.5-2.5V24.3
			c0-1-0.5-2-1.5-2.5L36.2,16z"/>
	</defs>
	<clipPath id="SVGID_2_">
		<use xlink:href="#SVGID_1_"  style="overflow:visible;"/>
	</clipPath>
	<rect x="-8.6" y="-5.2" class="st0" width="65.2" height="58.4"/>
</g>
</svg>
