<?xml version="1.0" encoding="UTF-8"?>
<svg width="49px" height="48px" viewBox="0 0 49 48" version="1.1" xmlns="http://www.w3.org/2000/svg" xmlns:xlink="http://www.w3.org/1999/xlink">
    <title>Browser/Utilities</title>
    <g id="Browser/Utilities" stroke="none" stroke-width="1" fill="none" fill-rule="evenodd">
        <rect id="Rectangle" fill="#FFFFFF" x="0" y="0" width="48" height="48"></rect>
        <g id="setup" transform="translate(5.000000, 4.000000)" fill="#8AA3B8" fill-rule="nonzero">
            <path d="M22.0651701,19.117551 C22.5246259,18.882585 23.0364626,18.7583673 23.567483,18.7583673 C24.447483,18.7583673 25.2748299,19.1 25.8985034,19.7204082 L27.2410884,18.3779592 C30.5635374,19.542585 34.4062585,18.7970068 37.0623129,16.1410884 C39.2971429,13.9062585 40.1785034,10.8314286 39.7080272,7.93306122 C39.6561905,7.61387755 39.4302041,7.35061224 39.122585,7.25129252 C38.814966,7.15183673 38.4772789,7.23265306 38.2487075,7.46136054 L36.2552381,9.45482993 C34.6318367,11.0782313 31.9995918,11.0782313 30.3761905,9.45482993 C28.7526531,7.83142857 28.7526531,5.19918367 30.3761905,3.57578231 L32.3696599,1.58231293 C32.5983673,1.35360544 32.6798639,1.01591837 32.5802721,0.708163265 C32.4808163,0.400272109 32.2171429,0.174829932 31.8978231,0.122993197 C28.9995918,-0.347482993 25.9246259,0.533877551 23.689932,2.76870748 C20.9944218,5.46421769 20.2689796,9.3814966 21.5087075,12.7372789 L18.5968707,15.6491156 L22.0651701,19.117551 Z" id="Path"></path>
            <path d="M16.7590476,24.3940136 L13.3053061,20.9402721 L1.22843537,33.0170068 C-0.341904762,34.5873469 -0.341904762,37.1333333 1.22843537,38.7036735 C2.79877551,40.2740136 5.3447619,40.2740136 6.91510204,38.7036735 L17.3261224,28.2927891 C16.2760544,27.2371429 16.0868027,25.6434014 16.7590476,24.3940136 Z" id="Path"></path>
            <path d="M24.4619048,21.1696599 C24.214966,20.9227211 23.8911565,20.7991837 23.567483,20.7991837 C23.2438095,20.7991837 22.92,20.9227211 22.6730612,21.1696599 L21.9521088,21.8906122 L9.10965986,9.04816327 L9.70993197,8.44789116 C10.2568707,7.90108844 10.1889796,6.99401361 9.56557823,6.53496599 L4.32585034,2.67605442 C3.82231293,2.30530612 3.12353741,2.35795918 2.68136054,2.80013605 L0.456598639,5.02503401 C0.0144217687,5.46721088 -0.0382312925,6.16612245 0.332517007,6.66952381 L4.19129252,11.9092517 C4.65034014,12.532517 5.55687075,12.6010884 6.10421769,12.0536054 L6.7044898,11.4531973 L19.5469388,24.2956463 L18.7752381,25.0673469 C18.2812245,25.5613605 18.2812245,26.3621769 18.7752381,26.8561905 L30.6227211,38.7036735 C32.1930612,40.2740136 34.7390476,40.2740136 36.3093878,38.7036735 C37.8797279,37.1333333 37.8797279,34.5873469 36.3093878,33.0170068 L24.4619048,21.1696599 Z" id="Path"></path>
        </g>
    </g>
</svg>