<?xml version="1.0" encoding="UTF-8"?>
<svg width="48px" height="48px" viewBox="0 0 48 48" version="1.1" xmlns="http://www.w3.org/2000/svg" xmlns:xlink="http://www.w3.org/1999/xlink">
    <title>Icons/Browser/xDAI</title>
    <g id="Icons/Browser/xDAI" stroke="none" stroke-width="1" fill="none" fill-rule="evenodd">
        <polygon id="Shape" fill="#FFFFFF" points="0 0 48 0 48 48 0 48"></polygon>
        <path d="M20,6 L6,6 L6,13 L20,13 L20,6 Z M42,6 L28,6 L28,13 L42,13 L42,6 Z M28,35 L35,35 L35,28 L42,28 L42,34.5882057 L42,42 L34.5882057,42 L28,42 L28,35 Z M20,35 L13,35 L13,28 L6,28 L6,34.5882057 L6,42 L13.4117656,42 L20,42 L20,35 Z" id="Shape" fill="#62A7A5"></path>
    </g>
</svg>